<svg id="Capa_1" enable-background="new 0 0 512.727 512.727" height="512" viewBox="0 0 512.727 512.727" width="512" xmlns="http://www.w3.org/2000/svg"><g><g><path d="m277.71 503.149v-62.733h-36.076v62.733c0 1.148.93 2.078 2.078 2.078h31.92c1.147 0 2.078-.931 2.078-2.078z" fill="#c9bfc8"/><path d="m195.556 383.329 25.753 20.195h85.487l14.991-20.188 16.865-192.987 2.926-30.334h-164.46l1.574 30.334z" fill="#c2fae3"/><path d="m299.172 7.5h-81c-28.81 0-51.71 24.21-50.11 52.98l4.76 85.33 20.701 30.401h140.192l10.807-30.401 4.76-85.33c1.6-28.771-21.3-52.98-50.11-52.98z" fill="#efedef"/><g><path d="m295.593 125.809c-21.038 0-38.413-16.432-39.584-37.438l-1.556-27.891c-1.55-27.867 19.886-51.455 47.415-52.909-.892-.047-1.791-.071-2.695-.071h-81c-28.81 0-51.71 24.21-50.11 52.98l4.76 85.33 20.701 30.401h61.009 25.381 53.801l10.807-30.401 1.116-20.001z" fill="#e5e1e5"/><path d="m290.646 412.717h-63.949v33.194c0 8.563 6.941 15.504 15.504 15.504h32.941c8.563 0 15.504-6.941 15.504-15.504z" fill="#c9bfc8"/><path d="m195.716 385.16 25.593 18.365h38.363l14.294-20.195-10.055-115.056c-2.721-31.143 21.825-57.928 53.086-57.928h19.907l1.747-19.996 2.926-30.334h-86.051-7.061-71.349l1.574 30.334z" fill="#9cf8d2"/><path d="m278.568 239.063v48.018c0 10.988-8.908 19.896-19.896 19.896-10.988 0-19.896-8.908-19.896-19.896v-48.018z" fill="#c9bfc8"/><path d="m258.672 306.977c3.028 0 5.886-.696 8.455-1.906l-3.216-36.798c-.92-10.525 1.284-20.547 5.8-29.21h-30.935v48.018c-.001 10.988 8.907 19.896 19.896 19.896z" fill="#baafb9"/><path d="m258.672 258.96c-10.989 0-19.896-8.908-19.896-19.896 0-10.988 8.908-19.896 19.896-19.896 10.988 0 19.896 8.908 19.896 19.896 0 10.988-8.908 19.896-19.896 19.896z" fill="#baafb9"/><path d="m258.672 258.959c1.845 0 3.623-.271 5.319-.741 1.09-10.828 5.443-20.765 12.113-28.744-3.386-6.143-9.921-10.308-17.432-10.308-10.989 0-19.896 8.908-19.896 19.896-.001 10.99 8.907 19.897 19.896 19.897z" fill="#aa9ea9"/><g id="XMLID_181_"><g fill="#baafb9"><path d="m290.646 439.719v-27.002h-28.593-2.706-32.651v33.194c0 8.563 6.941 15.504 15.504 15.504h32.941c.408 0 .808-.03 1.208-.061-7.996-.618-14.297-7.288-14.297-15.443 0-3.42 2.772-6.192 6.192-6.192z"/><path d="m321.792 383.329-1.89 21.58c-.93 10.64-9.84 18.81-20.53 18.81h-81.41c-10.68 0-19.59-8.17-20.52-18.81l-1.89-21.58z"/></g></g><ellipse cx="45.391" cy="127.275" fill="#62dbfb" rx="20.646" ry="16.55" transform="matrix(.922 -.388 .388 .922 -45.825 27.581)"/><g id="XMLID_174_"><g><path d="m127.572 57.189v23.34c0 3.37-3.47 5.63-6.55 4.26l-55.6-24.73v-25.87c0-3.61 3.72-6.02 7.01-4.56l52.38 23.3c1.68.75 2.76 2.42 2.76 4.26z" fill="#62dbfb"/></g></g><ellipse cx="385.224" cy="410.279" fill="#eb5569" rx="20.646" ry="16.55" transform="matrix(.922 -.388 .388 .922 -129.006 181.6)"/><ellipse cx="469.817" cy="382.871" fill="#eb5569" rx="20.646" ry="16.55" transform="matrix(.922 -.388 .388 .922 -111.746 212.274)"/><g id="XMLID_176_"><g><path d="m487.402 282.969v23.57l-82.15 36.35v-29.32c0-2.57 1.51-4.9 3.86-5.94l69.17-30.6c4.29-1.9 9.12 1.24 9.12 5.94z" fill="#eb5569"/></g></g></g><path d="m349.17 190.346h-180.996c-8.902 0-16.118-7.216-16.118-16.118v-12.301c0-8.902 7.216-16.118 16.118-16.118h180.996c8.902 0 16.118 7.216 16.118 16.118v12.301c0 8.901-7.216 16.118-16.118 16.118z" fill="#6cf5c2"/><path d="m252.5 174.228v-12.301c0-8.902 7.216-16.118 16.118-16.118h-100.444c-8.902 0-16.118 7.216-16.118 16.118v12.301c0 8.902 7.216 16.118 16.118 16.118h100.444c-8.902 0-16.118-7.217-16.118-16.118z" fill="#00f2a6"/><path d="m195.716 385.16-.004.001 1.73 19.748c.93 10.64 9.84 18.81 20.52 18.81h78.408c-10.679-.001-19.589-8.17-20.519-18.81l-1.886-21.58h-78.409z" fill="#aa9ea9"/></g><g><path d="m372.788 174.228v-12.301c0-11.914-8.869-21.79-20.351-23.387l4.33-77.641c.892-15.995-4.679-31.213-15.687-42.852-11.006-11.637-25.891-18.047-41.91-18.047h-80.997c-16.019 0-30.903 6.41-41.911 18.048-11.008 11.639-16.579 26.857-15.687 42.852l2.037 36.527v.003l2.293 41.111c-11.481 1.597-20.351 11.473-20.351 23.387v12.301c0 13.023 10.595 23.618 23.618 23.618h3.641l10.023 114.683c.341 3.905 3.616 6.848 7.463 6.848.219 0 .44-.01.662-.029 4.126-.361 7.179-3.998 6.819-8.125l-9.909-113.377h93.979c4.142 0 7.5-3.358 7.5-7.5s-3.358-7.5-7.5-7.5h-112.676c-4.752 0-8.618-3.866-8.618-8.618v-12.301c0-4.752 3.866-8.618 8.618-8.618h180.996c4.752 0 8.618 3.866 8.618 8.618v12.301c0 4.752-3.866 8.618-8.618 8.618h-36.356c-4.142 0-7.5 3.358-7.5 7.5s3.358 7.5 7.5 7.5h17.658l-15.555 177.986h-112.49l-2.853-32.647c-.361-4.126-3.988-7.17-8.125-6.819-4.126.361-7.179 3.998-6.819 8.125l5.337 61.067c1.278 14.628 13.315 25.659 27.999 25.659h1.23v14.694c0 9.847 6.22 18.265 14.937 21.541v37.775c0 4.142 3.358 7.5 7.5 7.5s7.5-3.358 7.5-7.5v-36.311h21.076v36.311c0 4.142 3.358 7.5 7.5 7.5s7.5-3.358 7.5-7.5v-38.636c7.652-3.741 12.937-11.604 12.937-20.68v-14.694h1.23c14.684 0 26.721-11.031 27.999-25.659l18.153-207.712h3.641c13.024-.001 23.619-10.597 23.619-23.619zm-34.863-44.847-11.654-10.997 12.949-12.219zm3.866-69.317-1.066 19.118-14.454-13.639 15.121-14.269c.427 2.872.565 5.813.399 8.79zm-9.378 31.9-17.07 16.108-17.07-16.108 17.07-16.108zm-90.135 0 17.07-16.108 17.07 16.109-17.07 16.108zm6.142 26.42-17.07 16.109-17.07-16.109 17.07-16.108zm38.926-16.108 17.07 16.108-17.07 16.108-17.07-16.108zm0-20.624-17.07-16.109 17.07-16.108 17.07 16.109zm-27.998-26.421-17.07-16.108 17.07-16.108 17.07 16.108zm-10.928 10.312-17.07 16.108-17.07-16.108 17.07-16.108zm-27.998 26.421-17.07 16.109-17.07-16.108 17.07-16.109zm-42.373 12.854 14.376 13.566-12.938 12.209zm-1.363-24.423-1.134-20.33c-.187-3.359.024-6.668.589-9.886l16.283 15.365zm26.666 48.301 10.186 9.612h-20.373zm55.996 0 10.186 9.613h-20.373zm55.995 0 10.186 9.612h-20.373zm14.84-100.341c2.196 2.322 4.089 4.842 5.685 7.508l-20.525 19.369-17.07-16.109 20.522-19.366c4.187 2.173 8.033 5.051 11.388 8.598zm-28.301-13.262-14.537 13.718-14.635-13.811h26.46c.91 0 1.813.038 2.712.093zm-55.897-.093-14.635 13.811-14.598-13.775c.473-.015.945-.036 1.421-.036zm-46.565 4.304 21.002 19.819-17.07 16.108-21.385-20.18c1.49-2.367 3.221-4.61 5.194-6.696 3.587-3.793 7.732-6.833 12.259-9.051zm83.726 426.607c0 4.414-3.59 8.004-8.004 8.004h-32.941c-4.414 0-8.004-3.591-8.004-8.004v-14.694h48.949zm16.231-29.694h-81.41c-6.847 0-12.46-5.144-13.056-11.964l-1.173-13.42h109.867l-1.173 13.42c-.595 6.82-6.208 11.964-13.055 11.964z"/><path d="m286.068 287.081v-48.018c0-15.106-12.29-27.396-27.396-27.396s-27.396 12.29-27.396 27.396v48.018c0 15.106 12.29 27.396 27.396 27.396s27.396-12.289 27.396-27.396zm-27.396-60.414c6.835 0 12.396 5.561 12.396 12.396s-5.561 12.396-12.396 12.396-12.396-5.561-12.396-12.396c-.001-6.835 5.56-12.396 12.396-12.396zm0 72.81c-6.835 0-12.396-5.561-12.396-12.396v-23.599c3.725 1.899 7.936 2.977 12.396 2.977s8.671-1.078 12.396-2.977v23.599c0 6.835-5.561 12.396-12.396 12.396z"/><path d="m251.172 339.444v15.938c0 4.142 3.358 7.5 7.5 7.5s7.5-3.358 7.5-7.5v-15.938c0-4.142-3.358-7.5-7.5-7.5s-7.5 3.358-7.5 7.5z"/><path d="m127.855 46.074-52.371-23.292c-3.878-1.727-8.319-1.375-11.878.938-3.56 2.313-5.685 6.228-5.685 10.473v25.697c-.002.112-.002.223 0 .334v43.938c-6.551-2.318-14.41-2.19-21.86.946-14.304 6.022-21.755 20.864-16.61 33.086 2.578 6.124 8.036 10.769 14.974 12.743 2.517.716 5.15 1.071 7.822 1.071 4.167 0 8.426-.864 12.477-2.569 11.699-4.925 18.809-15.749 18.198-26.215v-51.62l45.048 20.036c3.779 1.681 8.104 1.339 11.57-.914 3.468-2.252 5.538-6.066 5.538-10.201v-23.336c-.001-4.801-2.836-9.164-7.223-11.115zm-78.953 89.541c-3.466 1.459-7.247 1.786-10.374.896-1.49-.424-4.155-1.526-5.254-4.136-1.903-4.521 2.038-10.677 8.605-13.441 2.247-.946 4.562-1.394 6.712-1.394 4.137 0 7.664 1.66 8.916 4.635 1.904 4.52-2.037 10.676-8.605 13.44zm71.175-59.452-47.157-20.974v-17.131l47.156 20.973v17.132z"/><path d="m488.546 271.237c-3.982-2.592-8.953-2.994-13.3-1.07l-69.163 30.606c-5.063 2.239-8.333 7.263-8.333 12.799v29.319 44.102c-6.551-2.318-14.41-2.189-21.86.945-6.648 2.799-12.067 7.583-15.258 13.471-3.438 6.342-3.93 13.491-1.352 19.615s8.036 10.769 14.974 12.743c2.517.716 5.15 1.071 7.822 1.071 4.167 0 8.426-.864 12.477-2.569 11.7-4.925 18.811-15.753 18.198-26.221v-58.276l31.653-14.007c3.788-1.676 5.5-6.105 3.823-9.894-1.676-3.788-6.107-5.499-9.894-3.823l-25.583 11.32v-17.144l67.157-29.718v17.145l-12.293 5.44c-3.788 1.676-5.5 6.105-3.824 9.893 1.676 3.789 6.108 5.5 9.893 3.824l6.224-2.754v41.678c-.532-.19-1.07-.37-1.621-.526-6.441-1.833-13.649-1.301-20.299 1.498-6.649 2.799-12.068 7.583-15.259 13.471-3.438 6.342-3.93 13.491-1.352 19.616 3.671 8.721 12.778 13.787 22.892 13.787 4.06 0 8.284-.817 12.381-2.542 11.3-4.758 18.317-15.02 18.231-25.147.012-.17.026-.34.026-.513v-72.841-23.57c0-4.751-2.378-9.136-6.36-11.728zm-99.815 147.207c-3.466 1.459-7.246 1.786-10.374.896-1.49-.424-4.155-1.526-5.254-4.136s-.024-5.285.714-6.648c1.549-2.858 4.425-5.334 7.891-6.793 2.247-.946 4.562-1.395 6.713-1.395 4.136 0 7.663 1.66 8.915 4.635.237.564.383 1.153.445 1.758.001.012.001.024.002.037.409 4.238-3.319 9.234-9.052 11.646zm82.097-27.232c-6.571 2.765-13.726 1.281-15.628-3.24-1.099-2.61-.024-5.286.714-6.648 1.549-2.858 4.425-5.333 7.891-6.792 2.182-.918 4.488-1.388 6.678-1.388 1.289 0 2.537.163 3.695.492 1.491.424 4.156 1.526 5.254 4.136 1.905 4.52-2.036 10.675-8.604 13.44z"/></g></g></svg>